<svg xmlns="http://www.w3.org/2000/svg" id="undraw_my_feed_inj0" width="222.327" height="142.453" viewBox="0 0 222.327 142.453">
    <defs>
        <style>
            .cls-1{fill:#e6e6e6}.cls-2{fill:#fff}.cls-3{fill:#3897f1}.cls-4{fill:#2f2e41}.cls-5{fill:#ffb8b8}
        </style>
    </defs>
    <path id="Rectangle_1" d="M0 0H222.232V142.327H0z" class="cls-1" transform="translate(.095 .126)"/>
    <path id="Rectangle_2" d="M0 0H209.523V116.056H0z" class="cls-2" transform="translate(6.45 17.977)"/>
    <path id="Rectangle_9" d="M0 0H222.232V9.441H0z" class="cls-3"/>
    <path id="Rectangle_10" d="M0 0H76.266V73.615H0z" class="cls-1" transform="translate(121.707 30.677)"/>
    <circle id="Ellipse_12" cx="1.75" cy="1.75" r="1.75" class="cls-2" transform="translate(5.266 3.077)"/>
    <circle id="Ellipse_13" cx="1.75" cy="1.75" r="1.75" class="cls-2" transform="translate(11.908 3.077)"/>
    <circle id="Ellipse_14" cx="1.75" cy="1.75" r="1.75" class="cls-2" transform="translate(18.55 3.077)"/>
    <path id="Rectangle_13" d="M0 0H20.337V20.337H0z" class="cls-3" transform="translate(22.562 30.526)"/>
    <path id="Rectangle_14" d="M0 0H20.337V20.337H0z" class="cls-1" transform="translate(50.844 30.643)"/>
    <path id="Rectangle_15" d="M0 0H20.337V67.671H0z" class="cls-3" transform="translate(50.925 58.579)"/>
    <path id="Rectangle_16" d="M0 0H20.337V34.623H0z" class="cls-1" transform="translate(22.007 58.428)"/>
    <path id="Path_4" d="M711.827 321.653c-3.349-5.658-9.972-5.921-9.972-5.921s-6.455-.825-10.6 7.791c-3.859 8.031-9.186 15.785-.857 17.665l1.5-4.682.932 5.031a32.589 32.589 0 0 0 3.564.061c8.919-.288 17.414.084 17.14-3.115-.356-4.256 1.515-11.383-1.707-16.83z" class="cls-4" transform="translate(-552.503 -279.348)"/>
    <path id="Path_5" d="M655.063 545.527l-11.292 7.84s-6.587 6.9-1.882 6.9 6.587-5.959 6.587-5.959l14.428-6.273z" class="cls-5" transform="translate(-518.596 -449.5)"/>
    <path id="Path_6" d="M694 427.731s-9.88 30.583-6.744 32.151 10.037 2.509 10.037 2.509z" class="cls-4" transform="translate(-552.981 -362.286)"/>
    <path id="Path_7" d="M694 427.731s-9.88 30.583-6.744 32.151 10.037 2.509 10.037 2.509z" transform="translate(-552.981 -362.286)" style="isolation:isolate" opacity="0.1"/>
    <path id="Path_8" d="M771.2 553.529h-22.244l15.8-8a10.069 10.069 0 0 1 1 .74 20.062 20.062 0 0 1 5.439 7.258z" class="cls-4" transform="translate(-599.121 -449.503)"/>
    <circle id="Ellipse_1" cx="8.155" cy="8.155" r="8.155" class="cls-5" transform="translate(139.133 41.293)"/>
    <path id="Path_9" d="M737.981 380.461s1.882 5.96 0 8.155 10.351-3.137 10.351-3.137-4.391-6.273-3.137-9.1z" class="cls-5" transform="translate(-590.85 -324.269)"/>
    <path id="Path_10" d="M730.917 418.486l-.659 4.294s.333.975.737 2.4a38.243 38.243 0 0 1 1.361 6.656c.191 2.221-.1 4.008-1.471 4.121-1.97.163-3 1.358-4.018 3.137h-22.69c.06-.978.132-1.995.217-3.039q.071-.941.156-1.907c.063-.74 2.285-14.645.615-17.637-3.449-6.179.941-9.723.941-9.723s.627-4.705.627-6.273c0-1.23 4.818-2.65 6.9-3.209.135-.035.254-.069.364-.094.361-.094.577-.147.577-.147l1.647-.675s4.626-.894 4.94-1.521a1.594 1.594 0 0 1 .8-.571 11.362 11.362 0 0 0 1.706-.684 7.993 7.993 0 0 0 .775-1.054 4.192 4.192 0 0 1 2.309-1.35c3.369-.85 8.209.834 8.209.834l-1.692 11.056z" class="cls-4" transform="translate(-565.719 -335.065)"/>
    <path id="Path_11" d="M803.669 470.621l-11.292 7.84s-6.587 6.9-1.882 6.9 6.585-5.958 6.585-5.958l14.429-6.273z" class="cls-5" transform="translate(-628.622 -394.041)"/>
    <path id="Path_12" d="M721.581 326.726l-6.544-3.427-4.1.636a7.34 7.34 0 0 0-6.034 5.634l-.768 3.39 4.655-.179 1.3-3.034v2.984l2.148-.083 1.246-4.83.779 5.142 7.635-.156z" class="cls-4" transform="translate(-565.933 -284.966)"/>
    <path id="Path_13" d="M815.258 395.737l2.2-.627s22.27 9.1 21.643 16.938.314 7.84-3.45 8.155-14.741-3.45-14.43-4.078 2.509-3.764 2.509-3.764l-8.469-6.587z" class="cls-4" transform="translate(-648.209 -338.134)"/>
    <circle id="Ellipse_2" cx="1.255" cy="1.255" r="1.255" class="cls-5" transform="translate(154.189 48.194)"/>
    <path id="Rectangle_17" d="M0 0H76.266V10.169H0z" class="cls-1" transform="translate(121.707 116.124)"/>
    <path id="Rectangle_18" d="M0 0H20.337V25.407H0z" class="cls-1" transform="translate(22.007 100.692)"/>
    <path id="Rectangle_19" d="M0 0H20.337V62.269H0z" class="cls-1" transform="translate(79.842 30.782)"/>
    <path id="Rectangle_20" d="M0 0H20.337V25.422H0z" class="cls-1" transform="translate(79.761 100.754)"/>
</svg>
