<svg xmlns="http://www.w3.org/2000/svg" width="174" height="233" viewBox="0 0 174 233"><defs><filter id="Rectangle_1104" width="174" height="233" x="0" y="0" filterUnits="userSpaceOnUse"><feOffset input="SourceAlpha"/><feGaussianBlur result="blur" stdDeviation="4"/><feFlood flood-opacity=".078"/><feComposite in2="blur" operator="in"/><feComposite in="SourceGraphic"/></filter></defs><g id="Group_3670" data-name="Group 3670" transform="matrix(1, 0, 0, 1, -179, -317)"><g filter="url(#Rectangle_1104)" transform="matrix(1, 0, 0, 1, 179, 317)"><rect id="Rectangle_1104-2" width="150" height="209" fill="#fff" data-name="Rectangle 1104" transform="translate(12 12)"/></g><g id="Group_3669" data-name="Group 3669"><text id="Choose_from_Template" x="228.393" y="442.104" data-name="Choose from Template" style="fill:#1f1f1f;font-family:SegoeUI,&quot;Segoe UI&quot;;font-size:10px;white-space:pre">Choose Template</text><g id="noun_template_2596182" transform="matrix(1, 0, 0, 1, 236.391998, 363.447998)"><path id="Path_4958" fill="rgba(88,154,201,0.1)" stroke-width="1.5" d="M7,2V63.1H54.216V17.276H38.94V2ZM40.329,2V15.887H54.216ZM28.492,21.442a2.618,2.618,0,0,1,2.645,2.645v1.587h4.231a2.126,2.126,0,0,1,2.118,2.118v4.231h1.587a2.645,2.645,0,1,1,0,5.289H37.486v4.234a2.124,2.124,0,0,1-2.118,2.116h-4.02V42.074a2.856,2.856,0,0,0-5.712,0v1.587H21.614A2.121,2.121,0,0,1,19.5,41.546V37.523h1.587a2.856,2.856,0,0,0,0-5.712H19.5v-4.02a2.124,2.124,0,0,1,2.116-2.118h4.234V24.086A2.618,2.618,0,0,1,28.492,21.442Z" data-name="Path 4958" transform="translate(0 0)" style="stroke:#727272"/></g><text id="text-1" x="220.146" y="481.278" data-name="Choose from Template" style="fill:#1f1f1f;font-family:SegoeUI,&quot;Segoe UI&quot;;font-size:13px;font-weight:700;white-space:pre">COMING SOON</text></g></g></svg>